<?xml version="1.0" encoding="UTF-8" standalone="no"?>
<!-- Created with Inkscape (http://www.inkscape.org/) -->

<svg
   xmlns:svg="http://www.w3.org/2000/svg"
   xmlns="http://www.w3.org/2000/svg"
   version="1.1"
   width="203.95575"
   height="72.20237"
   id="svg5482">
  <defs
     id="defs5484" />
  <path
     d="m 180.26875,33.79862 10e-4,0 0.385,-0.77375 9.12125,0 c -0.01,0.0937 -0.02,0.21125 -0.0263,0.28 0.01,0.52125 0.19125,0.96125 0.55375,1.34625 0.25625,0.28375 0.77,0.47375 1.43875,0.47375 0.72375,0 1.88875,-0.315 1.9625,-1.2625 0.0725,-0.94625 -0.3775,-1.23 -2.9,-1.73375 -0.235,-0.0475 -0.45875,-0.095 -0.6775,-0.14625 l -14.81875,0 c 0.055,1.75125 0.8975,2.98375 2.55875,2.98375 0.89125,0 1.895,-0.37875 2.40125,-1.1675"
     id="path3568"
     style="fill:#1ea6e6;fill-opacity:1;fill-rule:nonzero;stroke:none" />
  <path
     d="m 176.57875,39.18987 c 6.065,3.43125 14.67375,5.22125 22.65125,4.59 0.35125,-0.4775 0.62875,-1.0125 0.81625,-1.59 -7.6475,1.38625 -16.6075,0.29625 -23.4675,-3"
     id="path3570"
     style="fill:#1ea6e6;fill-opacity:1;fill-rule:nonzero;stroke:none" />
  <path
     d="m 161.04,33.76862 c -0.0588,0.75625 0.60625,1.51375 1.60875,1.51375 1.2525,0 2.29,-0.8525 2.50625,-2.555 l 0.1175,-1.51375 c -0.6975,0.3775 -1.46625,0.5975 -2.23125,0.7875 -1.24875,0.31625 -1.91625,0.6625 -2.00125,1.7675"
     id="path3572"
     style="fill:#1ea6e6;fill-opacity:1;fill-rule:nonzero;stroke:none" />
  <path
     d="m 178.63375,25.78862 c -1.64375,0 -2.665,0.97875 -3.0525,2.745 l 5.26125,0 c 0.115,-1.51625 -0.79125,-2.745 -2.20875,-2.745"
     id="path3574"
     style="fill:#1ea6e6;fill-opacity:1;fill-rule:nonzero;stroke:none" />
  <path
     d="m 194.70125,0.03612 -34.78375,0 c -3.10875,0 -5.625,2.51875 -5.625,5.62375 l 0,40.40875 10.6125,0 3.8025,0 1.3925,0 3.2575,0 3.28,0 3.17875,0 10.035,0 4.85,0 c 1.31125,0 2.515,-0.4475 3.47125,-1.2 0.095,-0.0738 0.1875,-0.15375 0.27875,-0.23375 -10.34125,1.19375 -21.935,-1.74875 -28.14875,-7.21875 0.0675,0.40875 0.18,0.79625 0.35875,1.145 l -5.6225,0 c -0.10625,-0.44 -0.1375,-1.10375 -0.0737,-1.545 l -0.0563,0 c -1.28625,1.51375 -3.0175,1.955 -4.8,1.955 -2.78125,0 -4.975,-1.51375 -4.70875,-4.94875 0.3975,-5.17375 5.7275,-4.985 8.5825,-5.58625 0.765,-0.15625 1.535,-0.40875 1.61625,-1.45 0.085,-1.1025 -0.8025,-1.5125 -1.69375,-1.5125 -1.6975,0 -2.105,0.97625 -2.1875,1.67125 l -5.12,0 c 0.5225,-4.60625 4.4225,-5.3625 7.845,-5.3625 2.33125,0 3.83875,0.37125 4.805,0.985 0.004,-0.004 0.006,-0.006 0.01,-0.009 2.32875,-2.0925 5.75875,-3.67875 9.91375,-4.58625 l 1.1075,-0.22125 0.1175,0.49875 c -4.5575,1.16 -8.00875,3.13375 -9.9525,5.61375 0.47125,0.93875 0.48375,2.08 0.41375,3.25 1.27125,-3.23125 4.07,-5.53125 7.58375,-5.53125 3.77125,0 6.0125,1.57 6.96375,4.45875 0.7175,-3.51875 4.405,-4.45875 7.11625,-4.45875 3.1175,0 6.79875,0.97875 6.61375,5.1725 l -5.0075,0 c 0.0125,-0.5375 -0.20625,-0.945 -0.54625,-1.23 -0.31125,-0.31375 -0.7425,-0.47125 -1.18875,-0.47125 -0.77875,0 -1.6825,0.1875 -1.76625,1.2625 -0.0362,0.47 0.28,0.6925 0.5725,0.85 0.88625,0.44125 2.96375,0.5675 4.7475,1.26 1.78375,0.66375 3.305,1.89375 3.09625,4.57375 -0.34875,4.5425 -4.285,5.77125 -7.7925,5.77125 -2.7875,0 -5.71875,-1.04375 -6.54375,-3.75625 -1.1025,1.76625 -2.73875,2.885 -4.57125,3.40875 6.0825,2.515 13.51375,3.39625 20.155,2.455 0.0238,-0.2075 0.0362,-0.42 0.0362,-0.63375 l 0,-34.785 c 0,-3.105 -2.52,-5.62375 -5.625,-5.62375"
     id="path3576"
     style="fill:#1ea6e6;fill-opacity:1;fill-rule:nonzero;stroke:none" />
  <path
     d="m 201.32375,0.76487 c 0,-0.2625 -0.0937,-0.4425 -0.38625,-0.4425 -0.25625,0 -0.41125,0.1375 -0.41125,0.40375 0,0.6975 1.17375,0.2825 1.17375,1.18625 0,0.57375 -0.4225,0.7375 -0.77375,0.7375 -0.57875,0 -0.75,-0.2975 -0.75,-0.82625 l 0.30625,0 c 0,0.2775 0.0175,0.5775 0.46625,0.5775 0.2425,0 0.43,-0.17625 0.43,-0.43875 0,-0.70125 -1.17,-0.29625 -1.17,-1.205 0,-0.23125 0.0975,-0.68625 0.725,-0.68625 0.4725,0 0.6875,0.23625 0.69375,0.69375 l -0.30375,0"
     id="path3578"
     style="fill:#000000;fill-opacity:1;fill-rule:nonzero;stroke:none" />
  <path
     d="m 201.9275,0.12112 0.515,0 0.49625,1.96625 0.007,0 0.49625,-1.96625 0.51375,0 0,2.48 -0.305,0 0,-2.1675 -0.006,0 -0.55,2.1675 -0.305,0 -0.54875,-2.1675 -0.006,0 0,2.1675 -0.3075,0 0,-2.48 z"
     id="path3580"
     style="fill:#000000;fill-opacity:1;fill-rule:nonzero;stroke:none" />
  <path
     d="m 12.96875,5.54237 2.805,0 c 2.335,0 4.45875,1.37125 3.935,4.44875 -0.52875,3.10625 -3.1225,4.5025 -5.45875,4.5025 l -2.805,0 c 0.20875,-1.2275 1.31625,-7.7275 1.52375,-8.95125 m -4.9525,29.0875 c 0,0 0.72,-4.23125 1.38875,-8.1625 0.3625,-2.13125 0.7125,-4.17625 0.9225,-5.40875 0.0862,-0.5175 0.1525,-0.89875 0.185,-1.07625 l 3.65125,0 c 5.69125,-0.005 12.3375,-3.51 13.44375,-9.995 1.1,-6.4575 -4.36,-9.93875 -10.05,-9.93375 l -10.4375,0 -0.9825,0 -3.57875,21.005 -0.91875,5.415 -1.39125,8.16 L 0,36.09987 l 7.7675,0 c 0.0763,-0.47375 0.1625,-0.9625 0.24875,-1.47"
     id="path3582"
     style="fill:#000000;fill-opacity:1;fill-rule:nonzero;stroke:none" />
  <path
     d="m 138.60875,23.91737 c -0.6525,3.84125 -5.02,6.92 -8.48375,6.92 -2.7175,0.005 -4.39625,-2.2225 -3.95,-4.83625 0.5375,-3.15375 3.04,-5.76625 7.02625,-6.0775 l 6.16625,-0.46375 -0.75875,4.4575 z m 7.4925,2.76375 2.43375,-14.2975 c 1.3625,-7.995 -3.71375,-12.295 -12.04875,-12.295 -4.27875,0.004 -8.34625,0.9225 -11.54125,2.6675 0.59125,0.75875 1.07125,1.57 1.4125,2.4375 0.29125,0.73 0.4675,1.49375 0.58875,2.2725 2.335,-1.05125 5.21625,-1.76625 7.92875,-1.76625 4.775,0 6.43375,2.38375 5.83125,5.91875 l -0.41,2.3875 -7.315,0.61 c -6.83625,0.54375 -13.12375,4.46875 -14.2875,11.30875 -0.28375,1.65875 -0.165,3.19125 0.2875,4.5525 0.20375,0.63125 0.48625,1.2175 0.8375,1.76625 1.61,2.49375 4.6625,4.0575 8.81375,4.0575 3.935,-0.004 7.70375,-1.2375 10.435,-4.08375 0.5025,2.0025 2.4625,3.68875 5.0175,4.07375 l 5.32625,-4.30375 c -2.26375,-0.46375 -3.8625,-2.0775 -3.31,-5.30625"
     id="path3592"
     style="fill:#000000;fill-opacity:1;fill-rule:nonzero;stroke:none" />
  <path
     d="m 107.32625,23.96237 c -0.65875,3.84625 -5.0175,6.925 -8.485,6.925 -1.21375,0 -2.21625,-0.445 -2.9225,-1.175 -0.87,-0.8975 -1.27375,-2.22375 -1.03,-3.66875 0.5375,-3.15625 3.045,-5.77375 7.03,-6.085 l 2.40625,-0.18 3.76125,-0.28375 -0.76,4.4675 z M 76.81375,5.68987 C 77.48,5.51737 78.145,5.41612 78.79125,5.41612 c 1.84,0 3.265,0.7275 4.25625,1.8475 1.36125,1.52875 1.90375,3.78375 1.54375,5.88375 -0.0525,0.31125 -0.15875,0.9325 -0.30625,1.2375 l -3.73125,0.005 -12.39125,0.004 -0.2875,0 c 1.4525,-4.26375 5.2225,-7.74 8.93875,-8.70375 M 114.81,26.72507 117.24875,12.40632 c 1.155,-6.76 -2.30125,-10.8675 -8.42375,-11.9775 -1.12375,-0.20625 -2.3275,-0.32125 -3.6175,-0.32125 -4.30625,0 -8.40125,0.92875 -11.60625,2.69875 l 0,0.0537 c 0.6875,0.735 1.2575,1.54375 1.69375,2.4125 0.125,0.2425 0.2425,0.49375 0.34375,0.75 0.16625,0.4175 0.2975,0.85125 0.40875,1.29625 2.2575,-0.9575 4.9825,-1.59375 7.545,-1.59375 0.3,0 0.58625,0.01 0.86625,0.0312 4.11,0.27 5.52375,2.57375 4.96375,5.8925 l -0.40875,2.38125 -7.3125,0.6275 c -6.835,0.53625 -13.125,4.4625 -14.28875,11.3125 -0.09,0.51375 -0.12375,1.00625 -0.13875,1.49625 -0.915,0.7025 -1.9425,1.34375 -3.0925,1.925 -0.27375,0.14375 -0.54125,0.2775 -0.8275,0.41 -0.26625,0.085 -0.5425,0.1525 -0.81875,0.2275 -1.76625,0.4825 -3.635,0.76375 -5.6925,0.76375 -0.3025,0 -0.58375,-0.02 -0.8775,-0.0387 -7.2675,-0.4225 -10.00875,-6.06125 -9.39625,-10.88375 l 0.0825,0 0.01,-0.06 0.11875,0 4.36375,-0.004 11.62125,-0.006 3.215,0 c 1.5075,-2.125 3.6525,-3.7375 6.13125,-4.80375 0.13875,-0.61625 0.25,-1.26125 0.33875,-1.775 0.3525,-2.0725 0.1825,-4.13875 -0.5225,-5.99125 -0.5075,-1.33625 -1.305,-2.555 -2.36,-3.60625 -2.2025,-2.1925 -5.5925,-3.63 -10.23375,-3.62375 -7.8075,0.004 -16.4425,5.29135 -19.6725,14.4551 l -2.215,0 2.46375,-14.455 -7.7875,0.004 c 0,0 -2.21625,13.02 -2.45,14.39 -1.62125,0 -12.50375,0.007 -14.12125,0.0113 0.2325,-1.37 2.4475,-14.395 2.4475,-14.395 l -7.85125,0.009 -5.28,30.99 -0.865,5.09125 7.85375,0 c 0.11875,-0.705 0.235,-1.38125 0.33875,-1.99875 0,0 2.19125,-12.865 2.425,-14.2375 1.615,0 12.505,-0.004 14.1225,-0.004 -0.16125,0.9375 -1.2325,7.24125 -1.89625,11.14 0,0 -0.3975,2.3175 -0.87,5.1 l 7.7875,0 0.3425,-2.0075 2.41875,-14.21875 1.955,0 c -0.885,10.0425 6.1875,16.57625 16.17,16.57125 4.735,-0.005 8.06,-0.82375 10.62,-2.02125 l 0,0.009 c 0.0287,-0.0188 0.0612,-0.035 0.0937,-0.055 0.0237,-0.009 0.0537,-0.0188 0.075,-0.0288 l 0,-0.009 c 0.64375,-0.31625 1.23875,-0.63125 1.78875,-0.94625 0.5175,-0.3025 0.9975,-0.6025 1.4475,-0.9 0.1325,0.1925 0.275,0.39125 0.43375,0.5725 0.64375,0.77375 1.4475,1.43 2.39875,1.9425 1.5675,0.86 3.53375,1.3425 5.84,1.3425 3.14375,0 6.17375,-0.81 8.6625,-2.58 0.62375,-0.44375 1.225,-0.9325 1.775,-1.50875 0.25625,1.02625 0.895,1.96375 1.8,2.6925 0.86375,0.69625 1.96875,1.19875 3.22,1.38625 l 5.31875,-4.31 c -2.26375,-0.4587 -3.86375,-2.07745 -3.31375,-5.3062"
     id="path3594"
     style="fill:#000000;fill-opacity:1;fill-rule:nonzero;stroke:none" />
  <path
     d="m 89.59,43.01237 c 0.8125,0 1.17,-0.2525 1.17,-0.82875 0,-0.30875 -0.14625,-0.56875 -0.365,-0.69 -0.18875,-0.0913 -0.43125,-0.13 -0.87875,-0.13 l -0.6,0 0,1.64875 0.67375,0 z m -0.67375,2.01375 c 0,0.1625 0.007,0.21125 0.065,0.2675 0.065,0.0737 0.21125,0.11375 0.37375,0.11375 l 0.51125,0 0,0.67375 -3.15125,0 0,-0.66625 0.4225,0 c 0.15375,0 0.325,-0.0638 0.39,-0.1375 0.0412,-0.0488 0.0488,-0.0975 0.0488,-0.24375 l 0,-3.32125 c 0,-0.15375 -0.008,-0.2025 -0.0662,-0.26 -0.0638,-0.0725 -0.21875,-0.1225 -0.3725,-0.1225 l -0.4225,0 0,-0.665 3.57375,0 c 1.22625,0 1.875,0.5275 1.875,1.52625 0,1.02375 -0.665,1.51875 -2.0375,1.51875 l -1.21,0 0,1.31625"
     id="path3596"
     style="fill:#000000;fill-opacity:1;fill-rule:nonzero;stroke:none" />
  <path
     d="m 94.0325,43.34487 c 0,1.38 0.57625,2.2 1.55125,2.2 0.96625,0 1.55125,-0.82 1.55125,-2.17625 0,-1.3475 -0.585,-2.16875 -1.55125,-2.16875 -0.9575,0 -1.55125,0.82125 -1.55125,2.145 m 4.58875,0.0238 c 0,1.75375 -1.185,2.88375 -3.01375,2.88375 -1.875,0 -3.03625,-1.12125 -3.03625,-2.92375 0,-0.84625 0.34875,-1.6575 0.91625,-2.145 0.5375,-0.455 1.25125,-0.69 2.1125,-0.69 1.84375,0 3.02125,1.12125 3.02125,2.875"
     id="path3598"
     style="fill:#000000;fill-opacity:1;fill-rule:nonzero;stroke:none" />
  <path
     d="m 101.93625,46.08112 -1.06375,0 -1.4375,-4.10125 C 99.2725,41.53362 99.12625,41.36362 98.89,41.36362 l -0.15375,0 0,-0.69875 2.63875,0 0,0.69875 -0.3075,0 c -0.24375,0 -0.31,0.0387 -0.31,0.18625 0,0.0563 0.0175,0.13 0.0663,0.28375 l 0.83625,2.52625 0.91,-2.51 -0.065,-0.17 c -0.0987,-0.26875 -0.17125,-0.31625 -0.45625,-0.31625 l -0.21875,0 0,-0.69875 2.82625,0 0,0.69875 -0.2925,0 c -0.33375,0 -0.42125,0.0475 -0.42125,0.21125 0,0.0562 0.015,0.145 0.0563,0.25875 l 0.85375,2.52625 0.8525,-2.52625 c 0.0325,-0.12125 0.0563,-0.2025 0.0563,-0.25875 0,-0.1725 -0.0738,-0.21125 -0.415,-0.21125 l -0.235,0 0,-0.69875 2.11125,0 0,0.69875 -0.1125,0 c -0.26125,0 -0.35875,0.11375 -0.53625,0.61625 l -1.4625,4.10125 -1.03875,0 -1.04,-3.0525 -1.09625,3.0525"
     id="path3600"
     style="fill:#000000;fill-opacity:1;fill-rule:nonzero;stroke:none" />
  <path
     d="m 113.07125,42.78362 -0.715,0 c -0.0888,-1.20875 -0.26875,-1.42 -1.20125,-1.42 l -1.43,0 0,1.57375 0.5525,0 c 0.47875,0 0.625,-0.15375 0.625,-0.64 l 0,-0.285 0.7225,0 0,2.5825 -0.7225,0 0,-0.32375 c 0,-0.50375 -0.12125,-0.62625 -0.625,-0.62625 l -0.5525,0 0,1.73875 1.535,0 c 0.77125,0 1.0875,-0.48 1.09625,-1.625 l 0.75625,0 -0.0412,2.3225 -5.5475,0 0,-0.66625 0.4225,0 c 0.1625,0 0.325,-0.0562 0.39125,-0.12875 0.04,-0.0575 0.0463,-0.10625 0.0463,-0.2525 l 0,-3.31375 c 0,-0.2925 -0.105,-0.38125 -0.4375,-0.38125 l -0.4225,0 0,-0.67375 5.5475,0 0,2.11875"
     id="path3602"
     style="fill:#000000;fill-opacity:1;fill-rule:nonzero;stroke:none" />
  <path
     d="m 117.0175,42.87362 c 0.675,0 1,-0.25125 1,-0.77125 0,-0.26125 -0.105,-0.4875 -0.27625,-0.60875 -0.1375,-0.0913 -0.3975,-0.13 -0.82875,-0.13 l -0.845,0 0,1.51 0.95,0 z m -0.95,2.16 c 0,0.1625 0.009,0.21125 0.0663,0.26875 0.0637,0.065 0.21,0.1125 0.3725,0.1125 l 0.4225,0 0,0.66625 -3.06125,0 0,-0.66625 0.42125,0 c 0.17875,0 0.325,-0.0475 0.39,-0.12875 0.0413,-0.0575 0.0488,-0.0975 0.0488,-0.2525 l 0,-3.32125 c 0,-0.15375 -0.008,-0.2025 -0.065,-0.26 -0.065,-0.0725 -0.21875,-0.1225 -0.37375,-0.1225 l -0.42125,0 0,-0.665 3.93125,0 c 1.0225,0 1.62375,0.47875 1.62375,1.30625 0,0.69125 -0.38125,1.0975 -1.19375,1.2925 0.58375,0.2025 0.8025,0.44625 0.8025,0.90875 l 0,0.8125 c 0,0.1375 0.0337,0.36625 0.0662,0.43 0.025,0.0412 0.0888,0.0738 0.15375,0.0738 0.18,0 0.26,-0.1625 0.26,-0.50375 l 0,-0.45375 0.6425,0 0,0.45375 c 0,0.39875 -0.065,0.65875 -0.22,0.85375 -0.2025,0.25125 -0.56,0.38875 -1.015,0.38875 -0.73875,0 -1.1775,-0.3575 -1.21,-0.99875 l -0.0487,-0.91 c -0.025,-0.38125 -0.0887,-0.56 -0.26125,-0.665 -0.105,-0.0725 -0.1775,-0.0813 -0.48625,-0.0813 l -0.845,0 0,1.46125"
     id="path3604"
     style="fill:#000000;fill-opacity:1;fill-rule:nonzero;stroke:none" />
  <path
     d="m 126.025,42.78362 -0.715,0 c -0.09,-1.20875 -0.2675,-1.42 -1.2025,-1.42 l -1.43,0 0,1.57375 0.5525,0 c 0.48,0 0.62625,-0.15375 0.62625,-0.64 l 0,-0.285 0.7225,0 0,2.5825 -0.7225,0 0,-0.32375 c 0,-0.50375 -0.12125,-0.62625 -0.62625,-0.62625 l -0.5525,0 0,1.73875 1.53625,0 c 0.77125,0 1.08875,-0.48 1.09625,-1.625 l 0.755,0 -0.04,2.3225 -5.5475,0 0,-0.66625 0.4225,0 c 0.16375,0 0.325,-0.0562 0.39,-0.12875 0.04,-0.0575 0.0487,-0.10625 0.0487,-0.2525 l 0,-3.31375 c 0,-0.2925 -0.10625,-0.38125 -0.43875,-0.38125 l -0.4225,0 0,-0.67375 5.5475,0 0,2.11875"
     id="path3606"
     style="fill:#000000;fill-opacity:1;fill-rule:nonzero;stroke:none" />
  <path
     d="m 129.71125,45.38362 c 0.65,0 0.975,-0.115 1.2425,-0.43875 0.3175,-0.375 0.46375,-0.91 0.46375,-1.6575 0,-0.6975 -0.13,-1.145 -0.43125,-1.48625 -0.28375,-0.32375 -0.60125,-0.4375 -1.2175,-0.4375 l -0.7475,0 0,4.02 0.69,0 z m -2.89125,-4.71875 3.58125,0 c 0.765,0 1.34875,0.2025 1.77125,0.6325 0.46375,0.46375 0.70625,1.12125 0.70625,1.925 0,1.7375 -1.03875,2.85875 -2.655,2.85875 l -3.40375,0 0,-0.66625 0.4225,0 c 0.1625,0 0.325,-0.0562 0.39,-0.12875 0.04,-0.0575 0.0488,-0.10625 0.0488,-0.2525 l 0,-3.32125 c 0,-0.15375 -0.009,-0.2025 -0.065,-0.26 -0.065,-0.0725 -0.22,-0.1225 -0.37375,-0.1225 l -0.4225,0 0,-0.665"
     id="path3608"
     style="fill:#000000;fill-opacity:1;fill-rule:nonzero;stroke:none" />
  <path
     d="m 138.71125,45.41487 c 0.7225,0 1.03875,-0.2675 1.03875,-0.8775 0,-0.58375 -0.33125,-0.88375 -0.97375,-0.88375 l -1.0475,0 0,1.76125 0.9825,0 z m -0.09,-2.46 c 0.72375,0 1.04,-0.24375 1.04,-0.80375 0,-0.57625 -0.27625,-0.7875 -1.0225,-0.7875 l -0.91,0 0,1.59125 0.8925,0 z m 0.5775,-2.29 c 1.21,0 1.8675,0.47875 1.8675,1.35625 0,0.5925 -0.3075,0.93375 -1.09625,1.2175 0.8375,0.17875 1.24375,0.625 1.24375,1.34875 0,0.925 -0.75625,1.49375 -1.99125,1.49375 l -3.695,0 0,-0.66625 0.4225,0 c 0.17125,0 0.325,-0.0475 0.39,-0.12875 0.04,-0.0487 0.0475,-0.0975 0.0475,-0.2525 l 0,-3.32125 c 0,-0.15375 -0.007,-0.2025 -0.0637,-0.26 -0.065,-0.0725 -0.21875,-0.1225 -0.37375,-0.1225 l -0.4225,0 0,-0.665 3.67125,0"
     id="path3610"
     style="fill:#000000;fill-opacity:1;fill-rule:nonzero;stroke:none" />
  <path
     d="m 142.455,41.81737 c -0.27625,-0.38125 -0.3825,-0.45375 -0.66625,-0.45375 l -0.24375,0 0,-0.69875 3.14375,0 0,0.69875 -0.415,0 c -0.21125,0 -0.3,0.0387 -0.3,0.1375 0,0.0575 0,0.065 0.11375,0.21125 l 0.86875,1.275 0.79625,-1.32375 c 0.0488,-0.0737 0.0725,-0.1375 0.0725,-0.18625 0,-0.0813 -0.055,-0.11375 -0.23625,-0.11375 l -0.3975,0 0,-0.69875 2.33875,0 0,0.69875 -0.15375,0 c -0.21125,0 -0.35,0.055 -0.4875,0.21125 -0.105,0.12125 -0.105,0.12125 -0.41375,0.6 l -1.12875,1.77875 0,1.0725 c 0,0.1625 0.007,0.21125 0.065,0.2675 0.065,0.065 0.21125,0.11375 0.37375,0.11375 l 0.5025,0 0,0.67375 -3.22375,0 0,-0.67375 0.50375,0 c 0.17125,0 0.3175,-0.0487 0.38125,-0.13 0.05,-0.0563 0.0575,-0.0975 0.0575,-0.25125 l 0,-1.0725 -1.55125,-2.13625"
     id="path3612"
     style="fill:#000000;fill-opacity:1;fill-rule:nonzero;stroke:none" />
  <path
     d="m 1.22875,58.83987 1.94125,4.205 0.63625,0 1.91125,-4.205 0,5.3025 0.745,0 0,-6.9775 -0.745,0 -2.215,4.94875 -2.27375,-4.94875 -0.735,0 0,6.9775 0.735,0 0,-5.3025 z"
     id="path3614"
     style="fill:#000000;fill-opacity:1;fill-rule:nonzero;stroke:none" />
  <path
     d="m 10.99125,61.91862 1.31375,-3.68625 1.29375,3.68625 -2.6075,0 z m 0.99,-4.75375 -2.5675,6.9775 0.79375,0 0.55875,-1.5775 3.04875,0 0.55875,1.5775 0.79375,0 -2.55875,-6.9775 -0.6275,0 z"
     id="path3616"
     style="fill:#000000;fill-opacity:1;fill-rule:nonzero;stroke:none" />
  <path
     d="m 23.02875,57.16487 -0.91125,0 -3.255,4.00875 0,-4.00875 -0.74375,0 0,6.9775 0.74375,0 0,-1.95 1.47125,-1.76375 2.12625,3.71375 0.8825,0 -2.51,-4.2825 2.19625,-2.695 z"
     id="path3618"
     style="fill:#000000;fill-opacity:1;fill-rule:nonzero;stroke:none" />
  <path
     d="m 26.3125,64.14237 0.745,0 0,-6.97875 -0.745,0 0,6.97875 z"
     id="path3620"
     style="fill:#000000;fill-opacity:1;fill-rule:nonzero;stroke:none" />
  <path
     d="m 35.31125,62.74237 -3.705,-5.5775 -0.70625,0 0,6.9775 0.745,0 0,-5.59625 3.705,5.59625 0.705,0 0,-6.9775 -0.74375,0 0,5.5775 z"
     id="path3622"
     style="fill:#000000;fill-opacity:1;fill-rule:nonzero;stroke:none" />
  <path
     d="m 44.53375,61.59487 0,-1.1075 -2.45875,0 0,0.65625 1.71375,0 0,0.53 c 0,0.53875 -0.1075,0.92125 -0.39125,1.26375 -0.32375,0.3925 -0.81375,0.5975 -1.3225,0.5975 -0.46,0 -0.9025,-0.175 -1.20625,-0.49 -0.44125,-0.45 -0.49,-0.93125 -0.49,-2.39125 0,-1.46 0.0487,-1.93125 0.49,-2.3825 0.30375,-0.3125 0.74625,-0.49875 1.20625,-0.49875 0.8725,0 1.49875,0.53875 1.695,1.42125 l 0.745,0 c -0.205,-1.22625 -1.1075,-2.08875 -2.44,-2.08875 -0.69625,0 -1.31375,0.255 -1.78375,0.725 -0.6575,0.65875 -0.6575,1.34375 -0.6575,2.82375 0,1.48 0,2.16625 0.6575,2.82375 0.47,0.47 1.0975,0.725 1.78375,0.725 0.715,0 1.3725,-0.27375 1.86125,-0.80375 0.43125,-0.46125 0.5975,-1 0.5975,-1.80375"
     id="path3624"
     style="fill:#000000;fill-opacity:1;fill-rule:nonzero;stroke:none" />
  <path
     d="m 54.88625,60.60487 -1.785,0 0,-2.775 1.785,0 c 0.87125,0 1.47875,0.46125 1.47875,1.3825 0,0.92125 -0.6075,1.3925 -1.47875,1.3925 m 0.0688,-3.44 -2.59875,0 0,6.9775 0.745,0 0,-2.87125 1.85375,0 c 1.27375,0 2.155,-0.80375 2.155,-2.05875 0,-1.25375 -0.88125,-2.0475 -2.155,-2.0475"
     id="path3626"
     style="fill:#000000;fill-opacity:1;fill-rule:nonzero;stroke:none" />
  <path
     d="m 60.355,64.14237 4.3325,0 0,-0.665 -3.5875,0 0,-2.52 3.05875,0 0,-0.66625 -3.05875,0 0,-2.46125 3.5875,0 0,-0.665 -4.3325,0 0,6.9775 z"
     id="path3628"
     style="fill:#000000;fill-opacity:1;fill-rule:nonzero;stroke:none" />
  <path
     d="m 72.47125,62.74237 -3.70625,-5.5775 -0.705,0 0,6.9775 0.745,0 0,-5.59625 3.705,5.59625 0.70625,0 0,-6.9775 -0.745,0 0,5.5775 z"
     id="path3630"
     style="fill:#000000;fill-opacity:1;fill-rule:nonzero;stroke:none" />
  <path
     d="m 81.47,62.74237 -3.70625,-5.5775 -0.705,0 0,6.9775 0.745,0 0,-5.59625 3.70625,5.59625 0.705,0 0,-6.9775 -0.745,0 0,5.5775 z"
     id="path3632"
     style="fill:#000000;fill-opacity:1;fill-rule:nonzero;stroke:none" />
  <path
     d="m 90.2625,62.22237 c 0,-0.57875 -0.20625,-1.05875 -0.58875,-1.3825 -0.2925,-0.255 -0.6175,-0.3925 -1.27375,-0.49 l -0.765,-0.1175 c -0.3625,-0.06 -0.725,-0.19625 -0.94,-0.3825 -0.21625,-0.18625 -0.31375,-0.46125 -0.31375,-0.80375 0,-0.775 0.53875,-1.29375 1.47,-1.29375 0.735,0 1.195,0.20625 1.6275,0.5975 l 0.48,-0.48 c -0.5975,-0.53875 -1.18625,-0.765 -2.07875,-0.765 -1.38125,0 -2.23375,0.785 -2.23375,1.97125 0,0.5575 0.175,0.98875 0.52875,1.30375 0.30375,0.26375 0.735,0.44 1.28375,0.52875 l 0.81375,0.1275 c 0.51,0.0788 0.68625,0.1375 0.91125,0.3325 0.22625,0.19625 0.33375,0.51 0.33375,0.87375 0,0.8125 -0.6275,1.2925 -1.64625,1.2925 -0.785,0 -1.32375,-0.18625 -1.90125,-0.76375 l -0.51,0.51 c 0.65625,0.65625 1.3425,0.92125 2.39125,0.92125 1.45125,0 2.41125,-0.755 2.41125,-1.98"
     id="path3634"
     style="fill:#000000;fill-opacity:1;fill-rule:nonzero;stroke:none" />
  <path
     d="m 94.96875,60.50612 -1.6475,-3.34125 -0.805,0 2.07875,4.09625 0,2.88125 0.745,0 0,-2.88125 2.05875,-4.09625 -0.80375,0 -1.62625,3.34125 z"
     id="path3636"
     style="fill:#000000;fill-opacity:1;fill-rule:nonzero;stroke:none" />
  <path
     d="m 101.055,57.16487 -0.74625,0 0,6.9775 4.3125,0 0,-0.665 -3.56625,0 0,-6.3125 z"
     id="path3638"
     style="fill:#000000;fill-opacity:1;fill-rule:nonzero;stroke:none" />
  <path
     d="m 108.72875,62.81112 -1.81375,-5.64625 -0.78375,0 2.29375,6.9775 0.6075,0 2.295,-6.9775 -0.785,0 -1.81375,5.64625 z"
     id="path3640"
     style="fill:#000000;fill-opacity:1;fill-rule:nonzero;stroke:none" />
  <path
     d="m 114.5825,61.91862 1.3125,-3.68625 1.295,3.68625 -2.6075,0 z m 0.98875,-4.75375 -2.5675,6.9775 0.79375,0 0.55875,-1.5775 3.04875,0 0.55875,1.5775 0.79375,0 -2.55875,-6.9775 -0.6275,0 z"
     id="path3642"
     style="fill:#000000;fill-opacity:1;fill-rule:nonzero;stroke:none" />
  <path
     d="m 126.1175,62.74237 -3.70375,-5.5775 -0.70625,0 0,6.9775 0.745,0 0,-5.59625 3.705,5.59625 0.70625,0 0,-6.9775 -0.74625,0 0,5.5775 z"
     id="path3644"
     style="fill:#000000;fill-opacity:1;fill-rule:nonzero;stroke:none" />
  <path
     d="m 130.70625,64.14237 0.74625,0 0,-6.97875 -0.74625,0 0,6.97875 z"
     id="path3646"
     style="fill:#000000;fill-opacity:1;fill-rule:nonzero;stroke:none" />
  <path
     d="m 135.98,61.91862 1.31375,-3.68625 1.29375,3.68625 -2.6075,0 z m 0.99,-4.75375 -2.5675,6.9775 0.79375,0 0.55875,-1.5775 3.0475,0 0.56,1.5775 0.79375,0 -2.55875,-6.9775 -0.6275,0 z"
     id="path3648"
     style="fill:#000000;fill-opacity:1;fill-rule:nonzero;stroke:none" />
  <path
     d="m 151.575,62.22237 c 0,-0.57875 -0.205,-1.05875 -0.58875,-1.3825 -0.29375,-0.255 -0.61625,-0.3925 -1.27375,-0.49 l -0.765,-0.1175 c -0.3625,-0.06 -0.725,-0.19625 -0.94,-0.3825 -0.21625,-0.18625 -0.315,-0.46125 -0.315,-0.80375 0,-0.775 0.54,-1.29375 1.47125,-1.29375 0.735,0 1.195,0.20625 1.6275,0.5975 l 0.48,-0.48 c -0.59875,-0.53875 -1.18625,-0.765 -2.07875,-0.765 -1.3825,0 -2.23375,0.785 -2.23375,1.97125 0,0.5575 0.17625,0.98875 0.52875,1.30375 0.30375,0.26375 0.735,0.44 1.28375,0.52875 l 0.81375,0.1275 c 0.51,0.0788 0.68625,0.1375 0.9125,0.3325 0.225,0.19625 0.3325,0.51 0.3325,0.87375 0,0.8125 -0.6275,1.2925 -1.6475,1.2925 -0.78375,0 -1.3225,-0.18625 -1.90125,-0.76375 l -0.50875,0.51 c 0.65625,0.65625 1.3425,0.92125 2.39125,0.92125 1.45125,0 2.41125,-0.755 2.41125,-1.98"
     id="path3650"
     style="fill:#000000;fill-opacity:1;fill-rule:nonzero;stroke:none" />
  <path
     d="m 157.97625,62.11362 -2.27375,-4.94875 -0.745,0 0,6.9775 0.745,0 0,-5.3025 1.94,4.205 0.6375,0 1.9125,-4.205 0,5.3025 0.74375,0 0,-6.9775 -0.74375,0 -2.21625,4.94875 z"
     id="path3652"
     style="fill:#000000;fill-opacity:1;fill-rule:nonzero;stroke:none" />
  <path
     d="m 165.465,61.91862 1.3125,-3.68625 1.295,3.68625 -2.6075,0 z m 0.99,-4.75375 -2.56875,6.9775 0.795,0 0.5575,-1.5775 3.04875,0 0.55875,1.5775 0.79375,0 -2.55875,-6.9775 -0.62625,0 z"
     id="path3654"
     style="fill:#000000;fill-opacity:1;fill-rule:nonzero;stroke:none" />
  <path
     d="m 173.33625,60.38862 0,-2.55875 1.8625,0 c 0.81375,0 1.3925,0.4325 1.3925,1.285 0,0.8525 -0.57875,1.27375 -1.3925,1.27375 l -1.8625,0 z m 4,-1.28375 c 0,-1.205 -0.85375,-1.94 -2.07,-1.94 l -2.675,0 0,6.9775 0.745,0 0,-3.0975 1.67625,0 1.5875,3.0975 0.8725,0 -1.65625,-3.165 c 0.90125,-0.18625 1.52,-0.8525 1.52,-1.8725"
     id="path3656"
     style="fill:#000000;fill-opacity:1;fill-rule:nonzero;stroke:none" />
  <path
     d="m 180.12875,57.82987 2.02,0 0,6.3125 0.745,0 0,-6.3125 2.01875,0 0,-0.665 -4.78375,0 0,0.665 z"
     id="path3658"
     style="fill:#000000;fill-opacity:1;fill-rule:nonzero;stroke:none" />
  <path
     d="m 188.04,64.14237 4.3325,0 0,-0.665 -3.5875,0 0,-2.52 3.0575,0 0,-0.66625 -3.0575,0 0,-2.46125 3.5875,0 0,-0.665 -4.3325,0 0,6.9775 z"
     id="path3660"
     style="fill:#000000;fill-opacity:1;fill-rule:nonzero;stroke:none" />
  <path
     d="m 196.48875,60.38862 0,-2.55875 1.8625,0 c 0.81375,0 1.39125,0.4325 1.39125,1.285 0,0.8525 -0.5775,1.27375 -1.39125,1.27375 l -1.8625,0 z m 3.99875,-1.28375 c 0,-1.205 -0.85125,-1.94 -2.06875,-1.94 l -2.67375,0 0,6.9775 0.74375,0 0,-3.0975 1.67625,0 1.58875,3.0975 0.87125,0 -1.65625,-3.165 c 0.90125,-0.18625 1.51875,-0.8525 1.51875,-1.8725"
     id="path3662"
     style="fill:#000000;fill-opacity:1;fill-rule:nonzero;stroke:none" />
</svg>
